<svg version="1.1" id="Layer_1" xmlns="http://www.w3.org/2000/svg" xmlns:xlink="http://www.w3.org/1999/xlink" x="0px" y="0px"
	 width="100%" viewBox="0 0 1024 1024" enable-background="new 0 0 1024 1024" xml:space="preserve">
<path fill="#000000" opacity="1.000000" stroke="none" 
	d="
M794.323792,611.000122 
	C794.322632,671.659729 794.266235,731.819458 794.412964,791.978699 
	C794.426208,797.399658 792.828308,801.310486 788.950256,805.155701 
	C766.354431,827.559753 744.007446,850.214783 721.575989,872.784607 
	C721.223755,873.138977 720.876648,873.499451 720.509644,873.838135 
	C714.962646,878.958069 714.982849,878.935974 709.537842,873.587219 
	C694.696228,859.007935 679.835327,844.448303 665.046448,829.944031 
	C662.301697,830.751404 660.979980,832.777771 659.365051,834.362427 
	C646.047974,847.429321 632.780212,860.546509 619.491333,873.642273 
	C613.771790,879.278625 613.762268,879.274780 607.803833,873.435242 
	C594.001587,859.908325 580.206299,846.374146 566.394104,832.857361 
	C565.339966,831.825684 564.174805,830.907410 562.586548,829.522644 
	C558.233826,833.809082 554.004211,837.971191 549.777954,842.136841 
	C538.504944,853.247864 527.114441,864.243713 516.033752,875.543335 
	C512.699707,878.943359 510.660980,878.535522 507.519165,875.377991 
	C493.887268,861.677917 480.035248,848.196899 466.256653,834.643005 
	C460.849426,829.323975 460.786499,829.276123 455.262177,834.732056 
	C441.984924,847.845093 428.803528,861.055481 415.501404,874.143127 
	C410.268097,879.292053 410.172058,879.187195 404.976410,873.996033 
	C391.891724,860.922668 378.826111,847.830017 365.705872,834.792297 
	C360.191589,829.312805 360.162323,829.391418 354.815186,834.756470 
	C341.054535,848.563538 327.272949,862.349670 313.486694,876.131226 
	C312.798523,876.819092 311.987640,877.384338 311.211029,878.025513 
	C308.346832,877.163025 306.833344,874.833862 305.004364,873.006592 
	C282.842896,850.866760 260.813110,828.594421 238.547897,806.559753 
	C234.336227,802.391663 232.555008,798.105713 232.559616,792.078186 
	C232.711533,593.601501 232.683929,395.124756 232.690613,196.647964 
	C232.691040,183.672821 238.470398,174.315994 249.209122,170.050583 
	C254.090485,168.111710 259.328339,167.972809 264.463959,167.970139 
	C376.781769,167.911514 489.099640,167.948273 601.417419,167.877502 
	C608.758789,167.872879 616.085693,168.012833 623.371033,168.725555 
	C633.173889,169.684525 640.659973,175.201752 647.422974,181.876648 
	C688.213501,222.136154 728.997253,262.402466 769.789612,302.660126 
	C774.057983,306.872650 778.382568,311.028320 782.654114,315.237671 
	C790.684692,323.151184 794.309387,332.834290 794.308350,344.029419 
	C794.299744,432.852966 794.315247,521.676514 794.323792,611.000122 
M659.865723,778.352600 
	C663.070251,774.222046 665.896973,775.210449 669.231201,778.523438 
	C681.992004,791.202881 694.925537,803.708740 707.826904,816.246094 
	C709.935791,818.295532 711.651794,820.834778 715.614807,822.576233 
	C725.583923,812.287537 735.673340,801.674255 746.024536,791.322754 
	C748.844727,788.502686 750.166687,785.627869 750.151245,781.661804 
	C750.050171,755.667358 750.108704,729.672363 750.103271,703.677551 
	C750.083435,608.520264 750.047607,513.362915 750.045837,418.205627 
	C750.045471,399.542664 749.999146,380.876740 750.318298,362.218109 
	C750.452454,354.372681 749.981201,353.386292 742.318481,353.383850 
	C707.155334,353.372620 671.992126,353.374634 636.828979,353.353363 
	C634.508545,353.351929 632.220154,353.312683 629.907776,352.669647 
	C615.033630,348.533752 606.791138,337.549896 606.760986,321.139862 
	C606.698792,287.309937 606.772888,253.479813 606.788940,219.649765 
	C606.792908,211.389389 606.789307,211.370087 598.669922,211.369919 
	C493.513092,211.367737 388.356293,211.371124 283.199463,211.374451 
	C276.353912,211.374664 276.354675,211.379776 276.354858,218.427963 
	C276.356049,266.256561 276.359070,314.085144 276.357483,361.913757 
	C276.352905,501.900299 276.358093,641.886841 276.278442,781.873291 
	C276.276306,785.674316 277.395782,788.533875 280.071930,791.177185 
	C288.961731,799.958069 297.690033,808.902161 306.518066,817.745972 
	C311.221283,822.457520 311.294159,822.460754 315.928711,817.899048 
	C328.991089,805.041748 342.021881,792.152283 355.060181,779.270447 
	C360.147125,774.244568 360.189026,774.303345 365.324219,779.349426 
	C378.752075,792.544189 392.311371,805.605957 405.654938,818.884949 
	C409.089355,822.302673 411.360016,822.346985 414.934845,818.778625 
	C428.254761,805.483093 441.953766,792.567932 455.471283,779.469543 
	C460.747925,774.356445 461.033295,774.346313 466.181396,779.398376 
	C479.617981,792.584473 493.032776,805.794006 506.584808,818.860901 
	C511.692200,823.785400 511.828888,823.592651 516.951965,818.629944 
	C530.831909,805.184387 544.829956,791.858521 558.561584,778.263428 
	C561.993713,774.865479 564.135376,775.055664 567.492493,778.380310 
	C581.223206,791.978394 595.280945,805.245605 609.085571,818.770203 
	C612.546082,822.160461 614.982483,822.208923 618.562500,818.622559 
	C631.979065,805.182373 645.724182,792.070251 659.865723,778.352600 
M653.179810,248.148453 
	C650.856018,248.733551 651.363037,250.690338 651.359497,252.226883 
	C651.319031,269.876221 651.382324,287.525848 651.310181,305.174957 
	C651.297546,308.266327 652.252075,309.762238 655.580994,309.745789 
	C673.562866,309.656891 691.545349,309.697754 709.527527,309.661774 
	C710.987610,309.658844 712.712097,309.833405 713.376709,308.065033 
	C713.947571,306.546326 712.729797,305.562836 711.810120,304.655945 
	C692.611694,285.725098 673.693848,266.504761 653.179810,248.148453 
z"/>
<path fill="#000000" opacity="1.000000" stroke="none" 
	d="
M576.340332,553.000000 
	C576.317688,563.495850 576.166748,573.493347 576.313416,583.486572 
	C576.367493,587.170349 575.080383,588.467346 571.389465,588.395691 
	C562.396729,588.221008 553.390869,588.176208 544.404236,588.484741 
	C540.557678,588.616821 539.554321,587.317200 539.575928,583.667053 
	C539.706177,561.676147 539.662842,539.684021 539.621765,517.692505 
	C539.617859,515.589661 540.148804,513.354126 538.770264,511.367493 
	C536.410522,510.629578 535.529175,512.616638 534.344299,513.826599 
	C527.120422,521.203430 519.758362,528.460083 512.850830,536.125000 
	C509.595795,539.736938 507.488464,539.254700 504.492096,536.059265 
	C497.201019,528.283997 489.698914,520.706055 482.239105,513.090393 
	C481.246918,512.077454 480.517639,510.607422 478.679565,510.485046 
	C477.668274,512.710938 478.179260,515.049744 478.172516,517.305664 
	C478.108154,538.797058 478.115906,560.288696 478.076599,581.780212 
	C478.064545,588.356201 478.027313,588.349182 471.345123,588.347229 
	C463.514709,588.344971 455.673096,588.105347 447.858002,588.453979 
	C442.994934,588.670959 441.588623,586.928772 441.610840,582.174316 
	C441.767395,548.687561 441.684906,515.199707 441.675201,481.712158 
	C441.670197,464.385315 441.633972,447.058380 441.683228,429.731689 
	C441.688629,427.830200 441.066650,425.769257 442.127686,424.354828 
	C463.826141,446.029327 485.517365,467.696564 507.701385,489.856079 
	C531.060608,466.978333 552.088013,444.241180 574.502319,422.949738 
	C575.111572,423.260437 575.720764,423.571106 576.330017,423.881775 
	C576.330017,466.754517 576.330017,509.627228 576.340332,553.000000 
z"/>
<path fill="#000000" opacity="1.000000" stroke="none" 
	d="
M687.930786,471.014801 
	C687.914673,497.175720 687.945496,522.839417 687.844482,548.502625 
	C687.823608,553.810120 687.939819,559.193237 686.496521,564.372131 
	C682.619934,578.281982 670.353333,587.934265 655.457336,588.226196 
	C639.631775,588.536255 623.789978,588.572144 607.965637,588.237671 
	C590.288818,587.864014 578.458923,575.153809 578.601257,557.666870 
	C578.630005,554.133606 579.521484,552.698181 583.310669,552.507080 
	C602.299011,551.549622 621.290527,552.160583 640.278748,552.109009 
	C652.617981,552.075439 652.663147,552.216431 652.590393,539.691711 
	C652.490845,522.548645 653.870605,525.284241 637.879395,525.036072 
	C628.723083,524.893921 619.543762,524.573181 610.415466,524.624939 
	C593.832336,524.718872 579.455200,511.625244 578.798096,492.590027 
	C578.361389,479.940063 578.507812,467.257782 578.784119,454.598480 
	C579.131653,438.677734 593.114075,425.013733 609.391296,424.747131 
	C625.218689,424.487946 641.057190,424.470703 656.884155,424.739624 
	C673.545532,425.022705 686.822266,438.465576 687.361755,455.047028 
	C687.529602,460.204529 687.739990,465.360657 687.930786,471.014801 
M626.607605,460.043182 
	C623.785767,459.910675 620.962097,459.808441 618.142578,459.637177 
	C615.295227,459.464172 613.522766,460.806122 613.476074,463.584961 
	C613.356018,470.727966 613.364563,477.878693 613.575378,485.018829 
	C613.654724,487.706116 614.899231,489.644226 618.242432,489.607300 
	C628.049438,489.498932 637.858948,489.568817 647.666992,489.636169 
	C651.018188,489.659149 652.587402,488.022034 652.591553,484.787231 
	C652.599915,478.304077 652.586792,471.820618 652.527344,465.337769 
	C652.494507,461.759521 650.963257,459.907867 647.028137,460.031982 
	C640.551331,460.236298 634.062744,460.064362 626.607605,460.043182 
z"/>
<path fill="#000000" opacity="1.000000" stroke="none" 
	d="
M517.000000,706.183716 
	C471.349060,706.179260 426.198090,706.185120 381.047150,706.161072 
	C373.675598,706.157166 366.791473,704.902283 361.860626,698.557495 
	C357.002777,692.306641 356.222656,685.460327 359.163727,678.349243 
	C362.180908,671.054321 368.192444,666.807373 375.871216,666.793762 
	C406.168030,666.740051 436.454376,665.613586 466.765411,666.429810 
	C485.567505,666.936096 504.407227,665.880615 523.221252,666.146362 
	C552.862854,666.564941 582.500122,665.978210 612.133240,666.243408 
	C623.606201,666.346130 635.104980,665.139954 646.559021,666.497986 
	C657.640137,667.811890 665.019714,675.435486 665.312866,685.705444 
	C665.597168,695.664612 658.665710,703.607910 647.888245,705.493225 
	C645.282471,705.949097 642.603577,706.184021 639.958069,706.186096 
	C599.138733,706.218018 558.319336,706.194580 517.000000,706.183716 
z"/>
<path fill="#000000" opacity="1.000000" stroke="none" 
	d="
M422.995117,424.738464 
	C438.307434,424.663177 438.302612,424.663147 438.244995,439.648743 
	C438.224487,444.980408 438.006134,450.324829 438.300720,455.639984 
	C438.539642,459.951111 437.150208,461.466309 432.663513,461.389374 
	C416.505890,461.112244 400.341644,461.230591 384.179932,461.181030 
	C377.401428,461.160217 377.170624,461.343506 377.169769,468.171783 
	C377.169098,473.503326 377.428772,478.842102 377.222046,484.164032 
	C377.063080,488.255981 378.524933,489.750671 382.709930,489.651947 
	C399.018738,489.267365 415.334045,489.159302 431.646851,488.941345 
	C438.132690,488.854645 438.125122,488.846313 438.145599,495.536346 
	C438.168518,503.033966 438.222778,510.531494 438.233704,518.029114 
	C438.244232,525.247131 438.227539,525.244141 431.248383,525.234314 
	C415.419830,525.211975 399.591278,525.181274 383.762726,525.178284 
	C377.510681,525.177124 377.190948,525.459778 377.189972,531.616638 
	C377.187317,548.444885 377.104950,565.275146 377.360718,582.099976 
	C377.431366,586.746826 376.257599,588.655212 371.257050,588.440186 
	C362.609039,588.068359 353.931244,588.234253 345.270203,588.397827 
	C341.806366,588.463196 340.623657,587.192505 340.628235,583.741272 
	C340.695862,532.423035 340.722443,481.104614 340.571747,429.786743 
	C340.557770,425.021729 343.025909,424.756989 346.518738,424.759827 
	C371.844482,424.780518 397.170227,424.752808 422.995117,424.738464 
z"/>
<path fill="#000000" opacity="1.000000" stroke="none" 
	d="
M392.000366,374.314819 
	C384.867950,373.962311 378.187042,375.077789 371.589294,373.552887 
	C361.430817,371.205048 355.584320,362.523346 356.732117,351.376923 
	C357.684326,342.129669 365.798309,334.741730 375.549011,334.690460 
	C399.044922,334.566864 422.541840,334.618835 446.038330,334.611481 
	C473.367645,334.602905 500.702850,334.938232 528.023682,334.456268 
	C540.505005,334.236023 549.672485,343.178314 549.729248,354.258514 
	C549.788025,365.730560 540.818665,373.988525 527.980469,374.235748 
	C519.317993,374.402527 510.650238,374.307861 501.984863,374.309296 
	C465.489990,374.315308 428.995117,374.313416 392.000366,374.314819 
z"/>
</svg>